<svg xmlns="http://www.w3.org/2000/svg" xmlns:xlink="http://www.w3.org/1999/xlink" width="800" zoomAndPan="magnify" viewBox="0 0 600 299.999988" height="400" preserveAspectRatio="xMidYMid meet" version="1.0"><defs><g/><clipPath id="b8d215e2d9"><rect x="0" width="516" y="0" height="289"/></clipPath></defs><g transform="matrix(1, 0, 0, 1, 42, 11)"><g clip-path="url(#b8d215e2d9)"><g fill="#ffffff" fill-opacity="1"><g transform="translate(0.675085, 186.659382)"><g><path d="M 100.046875 -108.984375 L 100.046875 0 L 53 0 L 53 -108.984375 L 4.890625 -108.984375 L 4.890625 -146.453125 L 147.953125 -146.453125 L 147.953125 -108.984375 Z M 100.046875 -108.984375 "/></g></g></g><g fill="#ffffff" fill-opacity="1"><g transform="translate(154.366978, 186.659382)"><g><path d="M 15.75 -146.453125 L 134.109375 -146.453125 L 134.109375 -111.328125 L 62.796875 -111.328125 L 62.796875 -86.21875 L 124.109375 -86.21875 L 124.109375 -52.578125 L 62.796875 -52.578125 L 62.796875 0 L 15.75 0 Z M 15.75 -146.453125 "/></g></g></g><g fill="#ffffff" fill-opacity="1"><g transform="translate(296.351023, 186.659382)"><g><path d="M 113.25 -146.453125 C 120.625 -146.453125 127.398438 -144.925781 133.578125 -141.875 C 139.753906 -138.820312 144.648438 -134.53125 148.265625 -129 C 151.890625 -123.46875 153.703125 -117.296875 153.703125 -110.484375 C 153.703125 -92.460938 145.539062 -81.109375 129.21875 -76.421875 L 129.21875 -75.578125 C 147.8125 -71.316406 157.109375 -59.109375 157.109375 -38.953125 C 157.109375 -31.285156 155.222656 -24.507812 151.453125 -18.625 C 147.691406 -12.738281 142.546875 -8.160156 136.015625 -4.890625 C 129.492188 -1.628906 122.332031 0 114.53125 0 L 15.75 0 L 15.75 -146.453125 Z M 62.796875 -89.40625 L 95.15625 -89.40625 C 98.28125 -89.40625 100.867188 -90.503906 102.921875 -92.703125 C 104.984375 -94.898438 106.015625 -97.632812 106.015625 -100.90625 L 106.015625 -103.03125 C 106.015625 -106.15625 104.945312 -108.816406 102.8125 -111.015625 C 100.6875 -113.210938 98.132812 -114.3125 95.15625 -114.3125 L 62.796875 -114.3125 Z M 62.796875 -34.0625 L 98.5625 -34.0625 C 101.6875 -34.0625 104.273438 -35.160156 106.328125 -37.359375 C 108.390625 -39.554688 109.421875 -42.289062 109.421875 -45.5625 L 109.421875 -47.6875 C 109.421875 -50.945312 108.390625 -53.675781 106.328125 -55.875 C 104.273438 -58.070312 101.6875 -59.171875 98.5625 -59.171875 L 62.796875 -59.171875 Z M 62.796875 -34.0625 "/></g></g></g><g fill="#ffffff" fill-opacity="1"><g transform="translate(0.675085, 272.126683)"><g><path d="M 0.421875 -34.40625 L 0.421875 -43 L 30.65625 -43 L 30.65625 -34.40625 L 20.4375 -34.40625 L 20.4375 0 L 10.640625 0 L 10.640625 -34.40625 Z M 0.421875 -34.40625 "/></g></g></g><g fill="#ffffff" fill-opacity="1"><g transform="translate(33.146685, 272.126683)"><g><path d="M 27.734375 -43 L 27.734375 -34.40625 L 12.921875 -34.40625 L 12.921875 -25.859375 L 27.109375 -25.859375 L 27.109375 -17.25 L 12.921875 -17.25 L 12.921875 -8.59375 L 27.734375 -8.59375 L 27.734375 0 L 3.125 0 L 3.125 -43 Z M 27.734375 -43 "/></g></g></g><g fill="#ffffff" fill-opacity="1"><g transform="translate(64.784345, 272.126683)"><g><path d="M 3.125 -43 L 18.5 -43 C 22.632812 -43 26.003906 -41.894531 28.609375 -39.6875 C 31.222656 -37.488281 32.53125 -34.335938 32.53125 -30.234375 C 32.53125 -27.066406 31.738281 -24.414062 30.15625 -22.28125 C 28.570312 -20.144531 26.425781 -18.644531 23.71875 -17.78125 L 38.515625 0 L 26.0625 0 L 12.921875 -17 L 12.921875 0 L 3.125 0 Z M 12.921875 -23.921875 L 14.078125 -23.921875 C 14.972656 -23.921875 15.734375 -23.9375 16.359375 -23.96875 C 16.992188 -24.007812 17.707031 -24.132812 18.5 -24.34375 C 19.300781 -24.550781 19.941406 -24.84375 20.421875 -25.21875 C 20.910156 -25.601562 21.328125 -26.160156 21.671875 -26.890625 C 22.023438 -27.617188 22.203125 -28.503906 22.203125 -29.546875 C 22.203125 -30.597656 22.023438 -31.488281 21.671875 -32.21875 C 21.328125 -32.945312 20.910156 -33.5 20.421875 -33.875 C 19.941406 -34.257812 19.300781 -34.554688 18.5 -34.765625 C 17.707031 -34.972656 16.992188 -35.09375 16.359375 -35.125 C 15.734375 -35.164062 14.972656 -35.1875 14.078125 -35.1875 L 12.921875 -35.1875 Z M 12.921875 -23.921875 "/></g></g></g><g fill="#ffffff" fill-opacity="1"><g transform="translate(103.510463, 272.126683)"><g><path d="M 3.125 -43 L 18.5 -43 C 22.632812 -43 26.003906 -41.894531 28.609375 -39.6875 C 31.222656 -37.488281 32.53125 -34.335938 32.53125 -30.234375 C 32.53125 -27.066406 31.738281 -24.414062 30.15625 -22.28125 C 28.570312 -20.144531 26.425781 -18.644531 23.71875 -17.78125 L 38.515625 0 L 26.0625 0 L 12.921875 -17 L 12.921875 0 L 3.125 0 Z M 12.921875 -23.921875 L 14.078125 -23.921875 C 14.972656 -23.921875 15.734375 -23.9375 16.359375 -23.96875 C 16.992188 -24.007812 17.707031 -24.132812 18.5 -24.34375 C 19.300781 -24.550781 19.941406 -24.84375 20.421875 -25.21875 C 20.910156 -25.601562 21.328125 -26.160156 21.671875 -26.890625 C 22.023438 -27.617188 22.203125 -28.503906 22.203125 -29.546875 C 22.203125 -30.597656 22.023438 -31.488281 21.671875 -32.21875 C 21.328125 -32.945312 20.910156 -33.5 20.421875 -33.875 C 19.941406 -34.257812 19.300781 -34.554688 18.5 -34.765625 C 17.707031 -34.972656 16.992188 -35.09375 16.359375 -35.125 C 15.734375 -35.164062 14.972656 -35.1875 14.078125 -35.1875 L 12.921875 -35.1875 Z M 12.921875 -23.921875 "/></g></g></g><g fill="#ffffff" fill-opacity="1"><g transform="translate(142.236581, 272.126683)"><g><path d="M 24.96875 -43 L 42.328125 0 L 31.796875 0 L 28.609375 -8.59375 L 12.25 -8.59375 L 9.0625 0 L -1.453125 0 L 15.890625 -43 Z M 25.28125 -17.203125 L 20.484375 -29.71875 L 20.375 -29.71875 L 15.578125 -17.203125 Z M 25.28125 -17.203125 "/></g></g></g><g fill="#ffffff" fill-opacity="1"><g transform="translate(184.506921, 272.126683)"><g/></g></g><g fill="#ffffff" fill-opacity="1"><g transform="translate(200.143449, 272.126683)"><g><path d="M 27.984375 -43 L 27.984375 -34.40625 L 12.921875 -34.40625 L 12.921875 -25.859375 L 26.84375 -25.859375 L 26.84375 -17.25 L 12.921875 -17.25 L 12.921875 0 L 3.125 0 L 3.125 -43 Z M 27.984375 -43 "/></g></g></g><g fill="#ffffff" fill-opacity="1"><g transform="translate(231.103525, 272.126683)"><g><path d="M 1.203125 -21.53125 C 1.203125 -27.75 3.320312 -33.007812 7.5625 -37.3125 C 11.800781 -41.625 16.910156 -43.78125 22.890625 -43.78125 C 28.898438 -43.78125 34.003906 -41.632812 38.203125 -37.34375 C 42.410156 -33.050781 44.515625 -27.78125 44.515625 -21.53125 C 44.515625 -15.238281 42.445312 -9.945312 38.3125 -5.65625 C 34.175781 -1.363281 29.035156 0.78125 22.890625 0.78125 C 16.597656 0.78125 11.410156 -1.34375 7.328125 -5.59375 C 3.242188 -9.851562 1.203125 -15.164062 1.203125 -21.53125 Z M 11.78125 -21.53125 C 11.78125 -19.269531 12.125 -17.207031 12.8125 -15.34375 C 13.507812 -13.488281 14.726562 -11.914062 16.46875 -10.625 C 18.207031 -9.34375 20.347656 -8.703125 22.890625 -8.703125 C 26.535156 -8.703125 29.285156 -9.953125 31.140625 -12.453125 C 33.003906 -14.953125 33.9375 -17.976562 33.9375 -21.53125 C 33.9375 -25.039062 32.988281 -28.050781 31.09375 -30.5625 C 29.195312 -33.082031 26.460938 -34.34375 22.890625 -34.34375 C 19.335938 -34.34375 16.597656 -33.082031 14.671875 -30.5625 C 12.742188 -28.050781 11.78125 -25.039062 11.78125 -21.53125 Z M 11.78125 -21.53125 "/></g></g></g><g fill="#ffffff" fill-opacity="1"><g transform="translate(278.221141, 272.126683)"><g><path d="M 3.125 -43 L 18.5 -43 C 22.632812 -43 26.003906 -41.894531 28.609375 -39.6875 C 31.222656 -37.488281 32.53125 -34.335938 32.53125 -30.234375 C 32.53125 -27.066406 31.738281 -24.414062 30.15625 -22.28125 C 28.570312 -20.144531 26.425781 -18.644531 23.71875 -17.78125 L 38.515625 0 L 26.0625 0 L 12.921875 -17 L 12.921875 0 L 3.125 0 Z M 12.921875 -23.921875 L 14.078125 -23.921875 C 14.972656 -23.921875 15.734375 -23.9375 16.359375 -23.96875 C 16.992188 -24.007812 17.707031 -24.132812 18.5 -24.34375 C 19.300781 -24.550781 19.941406 -24.84375 20.421875 -25.21875 C 20.910156 -25.601562 21.328125 -26.160156 21.671875 -26.890625 C 22.023438 -27.617188 22.203125 -28.503906 22.203125 -29.546875 C 22.203125 -30.597656 22.023438 -31.488281 21.671875 -32.21875 C 21.328125 -32.945312 20.910156 -33.5 20.421875 -33.875 C 19.941406 -34.257812 19.300781 -34.554688 18.5 -34.765625 C 17.707031 -34.972656 16.992188 -35.09375 16.359375 -35.125 C 15.734375 -35.164062 14.972656 -35.1875 14.078125 -35.1875 L 12.921875 -35.1875 Z M 12.921875 -23.921875 "/></g></g></g><g fill="#ffffff" fill-opacity="1"><g transform="translate(316.947233, 272.126683)"><g><path d="M 0.421875 -34.40625 L 0.421875 -43 L 30.65625 -43 L 30.65625 -34.40625 L 20.4375 -34.40625 L 20.4375 0 L 10.640625 0 L 10.640625 -34.40625 Z M 0.421875 -34.40625 "/></g></g></g><g fill="#ffffff" fill-opacity="1"><g transform="translate(349.418832, 272.126683)"><g><path d="M 27.734375 -43 L 27.734375 -34.40625 L 12.921875 -34.40625 L 12.921875 -25.859375 L 27.109375 -25.859375 L 27.109375 -17.25 L 12.921875 -17.25 L 12.921875 -8.59375 L 27.734375 -8.59375 L 27.734375 0 L 3.125 0 L 3.125 -43 Z M 27.734375 -43 "/></g></g></g><g fill="#ffffff" fill-opacity="1"><g transform="translate(381.056505, 272.126683)"><g/></g></g><g fill="#ffffff" fill-opacity="1"><g transform="translate(396.693046, 272.126683)"><g><path d="M 3.125 -43 L 16.46875 -43 C 20.5 -43 23.710938 -42.140625 26.109375 -40.421875 C 28.515625 -38.703125 29.71875 -35.914062 29.71875 -32.0625 C 29.71875 -27.75 27.925781 -24.671875 24.34375 -22.828125 C 30.457031 -21.753906 33.515625 -18.140625 33.515625 -11.984375 C 33.515625 -8.367188 32.265625 -5.46875 29.765625 -3.28125 C 27.265625 -1.09375 23.820312 0 19.4375 0 L 3.125 0 Z M 12.921875 -26.171875 L 13.703125 -26.171875 C 15.898438 -26.171875 17.535156 -26.550781 18.609375 -27.3125 C 19.679688 -28.070312 20.21875 -29.320312 20.21875 -31.0625 C 20.21875 -33.976562 18.046875 -35.4375 13.703125 -35.4375 L 12.921875 -35.4375 Z M 12.921875 -7.5625 L 16 -7.5625 C 20.800781 -7.5625 23.203125 -9.160156 23.203125 -12.359375 C 23.203125 -14.265625 22.597656 -15.632812 21.390625 -16.46875 C 20.191406 -17.300781 18.394531 -17.71875 16 -17.71875 L 12.921875 -17.71875 Z M 12.921875 -7.5625 "/></g></g></g><g fill="#ffffff" fill-opacity="1"><g transform="translate(432.813082, 272.126683)"><g><path d="M 24.96875 -43 L 42.328125 0 L 31.796875 0 L 28.609375 -8.59375 L 12.25 -8.59375 L 9.0625 0 L -1.453125 0 L 15.890625 -43 Z M 25.28125 -17.203125 L 20.484375 -29.71875 L 20.375 -29.71875 L 15.578125 -17.203125 Z M 25.28125 -17.203125 "/></g></g></g><g fill="#ffffff" fill-opacity="1"><g transform="translate(475.083435, 272.126683)"><g><path d="M 36.171875 -43 L 36.171875 -15.265625 C 36.171875 -9.984375 34.742188 -5.988281 31.890625 -3.28125 C 29.046875 -0.570312 24.878906 0.78125 19.390625 0.78125 C 13.898438 0.78125 9.726562 -0.570312 6.875 -3.28125 C 4.03125 -5.988281 2.609375 -9.984375 2.609375 -15.265625 L 2.609375 -43 L 12.40625 -43 L 12.40625 -18.140625 C 12.40625 -14.660156 12.953125 -12.242188 14.046875 -10.890625 C 15.140625 -9.535156 16.921875 -8.859375 19.390625 -8.859375 C 21.859375 -8.859375 23.640625 -9.535156 24.734375 -10.890625 C 25.828125 -12.242188 26.375 -14.660156 26.375 -18.140625 L 26.375 -43 Z M 36.171875 -43 "/></g></g></g></g></g></svg>